<svg id="g381939446" width="100%" xmlns="http://www.w3.org/2000/svg" class="flowchart" style="max-width: 2635.125px;" viewBox="0 0 2635.125 799" role="graphics-document document" aria-roledescription="flowchart-v2"><style>#g381939446{font-family:Arial;font-size:16px;fill:#333;}@keyframes edge-animation-frame{from{stroke-dashoffset:0;}}@keyframes dash{to{stroke-dashoffset:0;}}#g381939446 .edge-animation-slow{stroke-dasharray:9,5!important;stroke-dashoffset:900;animation:dash 50s linear infinite;stroke-linecap:round;}#g381939446 .edge-animation-fast{stroke-dasharray:9,5!important;stroke-dashoffset:900;animation:dash 20s linear infinite;stroke-linecap:round;}#g381939446 .error-icon{fill:#552222;}#g381939446 .error-text{fill:#552222;stroke:#552222;}#g381939446 .edge-thickness-normal{stroke-width:1px;}#g381939446 .edge-thickness-thick{stroke-width:3.5px;}#g381939446 .edge-pattern-solid{stroke-dasharray:0;}#g381939446 .edge-thickness-invisible{stroke-width:0;fill:none;}#g381939446 .edge-pattern-dashed{stroke-dasharray:3;}#g381939446 .edge-pattern-dotted{stroke-dasharray:2;}#g381939446 .marker{fill:#333333;stroke:#333333;}#g381939446 .marker.cross{stroke:#333333;}#g381939446 svg{font-family:Arial;font-size:16px;}#g381939446 p{margin:0;}#g381939446 .label{font-family:Arial;color:#333;}#g381939446 .cluster-label text{fill:#333;}#g381939446 .cluster-label span{color:#333;}#g381939446 .cluster-label span p{background-color:transparent;}#g381939446 .label text,#g381939446 span{fill:#333;color:#333;}#g381939446 .node rect,#g381939446 .node circle,#g381939446 .node ellipse,#g381939446 .node polygon,#g381939446 .node path{fill:#ECECFF;stroke:#9370DB;stroke-width:1px;}#g381939446 .rough-node .label text,#g381939446 .node .label text,#g381939446 .image-shape .label,#g381939446 .icon-shape .label{text-anchor:middle;}#g381939446 .node .katex path{fill:#000;stroke:#000;stroke-width:1px;}#g381939446 .rough-node .label,#g381939446 .node .label,#g381939446 .image-shape .label,#g381939446 .icon-shape .label{text-align:center;}#g381939446 .node.clickable{cursor:pointer;}#g381939446 .root .anchor path{fill:#333333!important;stroke-width:0;stroke:#333333;}#g381939446 .arrowheadPath{fill:#333333;}#g381939446 .edgePaths .path{stroke:#333333;stroke-width:1px;}#g381939446 .flowchart-link{stroke:#333333;fill:none;}#g381939446 .edgeLabel{background-color:rgba(232,232,232, 0.8);text-align:center;}#g381939446 .edgeLabel p{background-color:rgba(232,232,232, 0.8);}#g381939446 .edgeLabel rect{opacity:0.5;background-color:rgba(232,232,232, 0.8);fill:rgba(232,232,232, 0.8);}#g381939446 .labelBkg{background-color:rgba(232, 232, 232, 0.5);}#g381939446 .cluster rect{fill:#ffffde;stroke:#aaaa33;stroke-width:1px;}#g381939446 .cluster text{fill:#333;}#g381939446 .cluster span{color:#333;}#g381939446 .node .collapsed-indicator{fill:#aaaa33;stroke:none;opacity:0.6;}#g381939446 .node .collapsed-separator{stroke:#aaaa33;stroke-width:0.75px;}#g381939446 div.mermaidTooltip{position:absolute;text-align:center;max-width:200px;padding:2px;font-family:Arial;font-size:12px;background:hsl(80, 100%, 96.2745098039%);border:1px solid #aaaa33;border-radius:2px;pointer-events:none;z-index:100;}#g381939446 .flowchartTitleText{text-anchor:middle;font-size:18px;fill:#333;}#g381939446 rect.text{fill:none;stroke-width:0;}#g381939446 .icon-shape,#g381939446 .image-shape{background-color:rgba(232,232,232, 0.8);text-align:center;}#g381939446 .icon-shape p,#g381939446 .image-shape p{background-color:rgba(232,232,232, 0.8);padding:2px;}#g381939446 .icon-shape .label rect,#g381939446 .image-shape .label rect{opacity:0.5;background-color:rgba(232,232,232, 0.8);fill:rgba(232,232,232, 0.8);}#g381939446 .label-icon{display:inline-block;height:1em;overflow:visible;vertical-align:-0.125em;}#g381939446 .node .label-icon path{fill:currentColor;stroke:revert;stroke-width:revert;}#g381939446 .node .neo-node{stroke:#9370DB;}#g381939446 [data-look="neo"].node rect,#g381939446 [data-look="neo"].cluster rect,#g381939446 [data-look="neo"].node polygon{stroke:#9370DB;filter:drop-shadow(1px 2px 2px rgba(185, 185, 185, 1));}#g381939446 [data-look="neo"].swimlane.cluster rect{filter:none;}#g381939446 [data-look="neo"].node path{stroke:#9370DB;stroke-width:1px;}#g381939446 [data-look="neo"].node .outer-path{filter:drop-shadow(1px 2px 2px rgba(185, 185, 185, 1));}#g381939446 [data-look="neo"].node .neo-line path{stroke:#9370DB;filter:none;}#g381939446 [data-look="neo"].node circle{stroke:#9370DB;filter:drop-shadow(1px 2px 2px rgba(185, 185, 185, 1));}#g381939446 [data-look="neo"].node circle .state-start{fill:#000000;}#g381939446 [data-look="neo"].icon-shape .icon{fill:#9370DB;filter:drop-shadow(1px 2px 2px rgba(185, 185, 185, 1));}#g381939446 [data-look="neo"].icon-shape .icon-neo path{stroke:#9370DB;filter:drop-shadow(1px 2px 2px rgba(185, 185, 185, 1));}#g381939446 :root{--mermaid-font-family:Arial;}</style><g><marker id="g381939446_flowchart-v2-pointEnd" class="marker flowchart-v2" viewBox="0 0 10 10" refX="5" refY="5" markerUnits="userSpaceOnUse" markerWidth="8" markerHeight="8" orient="auto"><path d="M 0 0 L 10 5 L 0 10 z" class="arrowMarkerPath" style="stroke-width: 1; stroke-dasharray: 1, 0;"></path></marker><marker id="g381939446_flowchart-v2-pointStart" class="marker flowchart-v2" viewBox="0 0 10 10" refX="4.5" refY="5" markerUnits="userSpaceOnUse" markerWidth="8" markerHeight="8" orient="auto"><path d="M 0 5 L 10 10 L 10 0 z" class="arrowMarkerPath" style="stroke-width: 1; stroke-dasharray: 1, 0;"></path></marker><marker id="g381939446_flowchart-v2-pointEnd-margin" class="marker flowchart-v2" viewBox="0 0 11.5 14" refX="11.5" refY="7" markerUnits="userSpaceOnUse" markerWidth="10.5" markerHeight="14" orient="auto"><path d="M 0 0 L 11.5 7 L 0 14 z" class="arrowMarkerPath" style="stroke-width: 0; stroke-dasharray: 1, 0;"></path></marker><marker id="g381939446_flowchart-v2-pointStart-margin" class="marker flowchart-v2" viewBox="0 0 11.5 14" refX="1" refY="7" markerUnits="userSpaceOnUse" markerWidth="11.5" markerHeight="14" orient="auto"><polygon points="0,7 11.5,14 11.5,0" class="arrowMarkerPath" style="stroke-width: 0; stroke-dasharray: 1, 0;"></polygon></marker><marker id="g381939446_flowchart-v2-circleEnd" class="marker flowchart-v2" viewBox="0 0 10 10" refX="11" refY="5" markerUnits="userSpaceOnUse" markerWidth="11" markerHeight="11" orient="auto"><circle cx="5" cy="5" r="5" class="arrowMarkerPath" style="stroke-width: 1; stroke-dasharray: 1, 0;"></circle></marker><marker id="g381939446_flowchart-v2-circleStart" class="marker flowchart-v2" viewBox="0 0 10 10" refX="-1" refY="5" markerUnits="userSpaceOnUse" markerWidth="11" markerHeight="11" orient="auto"><circle cx="5" cy="5" r="5" class="arrowMarkerPath" style="stroke-width: 1; stroke-dasharray: 1, 0;"></circle></marker><marker id="g381939446_flowchart-v2-circleEnd-margin" class="marker flowchart-v2" viewBox="0 0 10 10" refY="5" refX="12.25" markerUnits="userSpaceOnUse" markerWidth="14" markerHeight="14" orient="auto"><circle cx="5" cy="5" r="5" class="arrowMarkerPath" style="stroke-width: 0; stroke-dasharray: 1, 0;"></circle></marker><marker id="g381939446_flowchart-v2-circleStart-margin" class="marker flowchart-v2" viewBox="0 0 10 10" refX="-2" refY="5" markerUnits="userSpaceOnUse" markerWidth="14" markerHeight="14" orient="auto"><circle cx="5" cy="5" r="5" class="arrowMarkerPath" style="stroke-width: 0; stroke-dasharray: 1, 0;"></circle></marker><marker id="g381939446_flowchart-v2-crossEnd" class="marker cross flowchart-v2" viewBox="0 0 11 11" refX="12" refY="5.2" markerUnits="userSpaceOnUse" markerWidth="11" markerHeight="11" orient="auto"><path d="M 1,1 l 9,9 M 10,1 l -9,9" class="arrowMarkerPath" style="stroke-width: 2; stroke-dasharray: 1, 0;"></path></marker><marker id="g381939446_flowchart-v2-crossStart" class="marker cross flowchart-v2" viewBox="0 0 11 11" refX="-1" refY="5.2" markerUnits="userSpaceOnUse" markerWidth="11" markerHeight="11" orient="auto"><path d="M 1,1 l 9,9 M 10,1 l -9,9" class="arrowMarkerPath" style="stroke-width: 2; stroke-dasharray: 1, 0;"></path></marker><marker id="g381939446_flowchart-v2-crossEnd-margin" class="marker cross flowchart-v2" viewBox="0 0 15 15" refX="17.7" refY="7.5" markerUnits="userSpaceOnUse" markerWidth="12" markerHeight="12" orient="auto"><path d="M 1,1 L 14,14 M 1,14 L 14,1" class="arrowMarkerPath" style="stroke-width: 2.5;"></path></marker><marker id="g381939446_flowchart-v2-crossStart-margin" class="marker cross flowchart-v2" viewBox="0 0 15 15" refX="-3.5" refY="7.5" markerUnits="userSpaceOnUse" markerWidth="12" markerHeight="12" orient="auto"><path d="M 1,1 L 14,14 M 1,14 L 14,1" class="arrowMarkerPath" style="stroke-width: 2.5; stroke-dasharray: 1, 0;"></path></marker><g class="root"><g class="clusters"></g><g class="edgePaths"><path d="M1564.125,47L1564.125,51.167C1564.125,55.333,1564.125,63.667,1564.125,71.333C1564.125,79,1564.125,86,1564.125,89.5L1564.125,93" id="g381939446-L_U_UI_0" class="edge-thickness-normal edge-pattern-solid edge-thickness-normal edge-pattern-solid flowchart-link" style=";" data-edge="true" data-et="edge" data-id="L_U_UI_0" data-points="W3sieCI6MTU2NC4xMjUsInkiOjQ3fSx7IngiOjE1NjQuMTI1LCJ5Ijo3Mn0seyJ4IjoxNTY0LjEyNSwieSI6OTd9XQ==" data-look="classic" marker-end="url(#g381939446_flowchart-v2-pointEnd)"></path><path d="M1564.125,245L1564.125,249.167C1564.125,253.333,1564.125,261.667,1564.125,269.333C1564.125,277,1564.125,284,1564.125,287.5L1564.125,291" id="g381939446-L_UI_ORCH_0" class="edge-thickness-normal edge-pattern-solid edge-thickness-normal edge-pattern-solid flowchart-link" style=";" data-edge="true" data-et="edge" data-id="L_UI_ORCH_0" data-points="W3sieCI6MTU2NC4xMjUsInkiOjI0NX0seyJ4IjoxNTY0LjEyNSwieSI6MjcwfSx7IngiOjE1NjQuMTI1LCJ5IjoyOTV9XQ==" data-look="classic" marker-end="url(#g381939446_flowchart-v2-pointEnd)"></path><path d="M1564.125,419L1564.125,423.167C1564.125,427.333,1564.125,435.667,1564.125,443.333C1564.125,451,1564.125,458,1564.125,461.5L1564.125,465" id="g381939446-L_ORCH_AGENTS_0" class="edge-thickness-normal edge-pattern-solid edge-thickness-normal edge-pattern-solid flowchart-link" style=";" data-edge="true" data-et="edge" data-id="L_ORCH_AGENTS_0" data-points="W3sieCI6MTU2NC4xMjUsInkiOjQxOX0seyJ4IjoxNTY0LjEyNSwieSI6NDQ0fSx7IngiOjE1NjQuMTI1LCJ5Ijo0Njl9XQ==" data-look="classic" marker-end="url(#g381939446_flowchart-v2-pointEnd)"></path><path d="M953.523,593L912.488,597.167C871.453,601.333,789.383,609.667,748.348,619.333C707.313,629,707.313,640,707.313,645.5L707.313,651" id="g381939446-L_AGENTS_TOOLS_0" class="edge-thickness-normal edge-pattern-solid edge-thickness-normal edge-pattern-solid flowchart-link" style=";" data-edge="true" data-et="edge" data-id="L_AGENTS_TOOLS_0" data-points="W3sieCI6OTUzLjUyMjk4ODUwNTc0NzEsInkiOjU5M30seyJ4Ijo3MDcuMzEyNSwieSI6NjE4fSx7IngiOjcwNy4zMTI1LCJ5Ijo2NTV9XQ==" data-look="classic" marker-end="url(#g381939446_flowchart-v2-pointEnd)"></path><path d="M1564.125,593L1564.125,597.167C1564.125,601.333,1564.125,609.667,1564.125,620.464C1564.125,631.262,1564.125,644.525,1564.125,651.156L1564.125,657.787" id="g381939446-L_AGENTS_LLM_0" class="edge-thickness-normal edge-pattern-solid edge-thickness-normal edge-pattern-solid flowchart-link" style=";" data-edge="true" data-et="edge" data-id="L_AGENTS_LLM_0" data-points="W3sieCI6MTU2NC4xMjUsInkiOjU5M30seyJ4IjoxNTY0LjEyNSwieSI6NjE4fSx7IngiOjE1NjQuMTI1LCJ5Ijo2NjEuNzg2NzYyMjM3NTQ4OH1d" data-look="classic" marker-end="url(#g381939446_flowchart-v2-pointEnd)"></path><path d="M1999.016,593L2028.242,597.167C2057.469,601.333,2115.922,609.667,2145.148,617.333C2174.375,625,2174.375,632,2174.375,635.5L2174.375,639" id="g381939446-L_AGENTS_KB_0" class="edge-thickness-normal edge-pattern-solid edge-thickness-normal edge-pattern-solid flowchart-link" style=";" data-edge="true" data-et="edge" data-id="L_AGENTS_KB_0" data-points="W3sieCI6MTk5OS4wMTU4MDQ1OTc3MDEyLCJ5Ijo1OTN9LHsieCI6MjE3NC4zNzUsInkiOjYxOH0seyJ4IjoyMTc0LjM3NSwieSI6NjQzfV0=" data-look="classic" marker-end="url(#g381939446_flowchart-v2-pointEnd)"></path></g><g class="edgeLabels"><g class="edgeLabel"><g class="label" data-id="L_U_UI_0" transform="translate(0, 0)"><foreignObject width="0" height="0"><div xmlns="http://www.w3.org/1999/xhtml" class="labelBkg" style="display: table-cell; white-space: nowrap; line-height: 1.5; max-width: 200px; text-align: center;"><span class="edgeLabel"></span></div></foreignObject></g></g><g class="edgeLabel"><g class="label" data-id="L_UI_ORCH_0" transform="translate(0, 0)"><foreignObject width="0" height="0"><div xmlns="http://www.w3.org/1999/xhtml" class="labelBkg" style="display: table-cell; white-space: nowrap; line-height: 1.5; max-width: 200px; text-align: center;"><span class="edgeLabel"></span></div></foreignObject></g></g><g class="edgeLabel"><g class="label" data-id="L_ORCH_AGENTS_0" transform="translate(0, 0)"><foreignObject width="0" height="0"><div xmlns="http://www.w3.org/1999/xhtml" class="labelBkg" style="display: table-cell; white-space: nowrap; line-height: 1.5; max-width: 200px; text-align: center;"><span class="edgeLabel"></span></div></foreignObject></g></g><g class="edgeLabel"><g class="label" data-id="L_AGENTS_TOOLS_0" transform="translate(0, 0)"><foreignObject width="0" height="0"><div xmlns="http://www.w3.org/1999/xhtml" class="labelBkg" style="display: table-cell; white-space: nowrap; line-height: 1.5; max-width: 200px; text-align: center;"><span class="edgeLabel"></span></div></foreignObject></g></g><g class="edgeLabel"><g class="label" data-id="L_AGENTS_LLM_0" transform="translate(0, 0)"><foreignObject width="0" height="0"><div xmlns="http://www.w3.org/1999/xhtml" class="labelBkg" style="display: table-cell; white-space: nowrap; line-height: 1.5; max-width: 200px; text-align: center;"><span class="edgeLabel"></span></div></foreignObject></g></g><g class="edgeLabel"><g class="label" data-id="L_AGENTS_KB_0" transform="translate(0, 0)"><foreignObject width="0" height="0"><div xmlns="http://www.w3.org/1999/xhtml" class="labelBkg" style="display: table-cell; white-space: nowrap; line-height: 1.5; max-width: 200px; text-align: center;"><span class="edgeLabel"></span></div></foreignObject></g></g></g><g class="nodes"><g class="root" transform="translate(1713.625, 635)"><g class="clusters"><g class="cluster" id="g381939446-KB" data-look="classic"><rect style="" x="8" y="8" width="905.5" height="148"></rect><g class="cluster-label" transform="translate(339.3671875, 8)"><foreignObject width="242.765625" height="24"><div xmlns="http://www.w3.org/1999/xhtml" style="display: table-cell; white-space: nowrap; line-height: 1.5;"><span class="nodeLabel"><p>4c. Knowledge layer  (rag/)  FACTS</p></span></div></foreignObject></g></g></g><g class="edgePaths"><path d="M305.5,82L311.75,82C318,82,330.5,82,343,82C355.5,82,368,82,374.25,82L380.5,82" id="g381939446-L_K1_K2_0" class="edge-thickness-invisible edge-pattern-solid" style=";" data-edge="true" data-et="edge" data-id="L_K1_K2_0" data-points="W3sieCI6MzA1LjUsInkiOjgyfSx7IngiOjM0MywieSI6ODJ9LHsieCI6MzgwLjUsInkiOjgyfV0=" data-look="classic"></path><path d="M640.5,82L646.75,82C653,82,665.5,82,678,82C690.5,82,703,82,709.25,82L715.5,82" id="g381939446-L_K2_K3_0" class="edge-thickness-invisible edge-pattern-solid" style=";" data-edge="true" data-et="edge" data-id="L_K2_K3_0" data-points="W3sieCI6NjQwLjUsInkiOjgyfSx7IngiOjY3OCwieSI6ODJ9LHsieCI6NzE1LjUsInkiOjgyfV0=" data-look="classic"></path></g><g class="edgeLabels"><g class="edgeLabel"><g class="label" data-id="L_K1_K2_0" transform="translate(0, 0)"><foreignObject width="0" height="0"><div xmlns="http://www.w3.org/1999/xhtml" class="labelBkg" style="display: table-cell; white-space: nowrap; line-height: 1.5; max-width: 200px; text-align: center;"><span class="edgeLabel"></span></div></foreignObject></g></g><g class="edgeLabel"><g class="label" data-id="L_K2_K3_0" transform="translate(0, 0)"><foreignObject width="0" height="0"><div xmlns="http://www.w3.org/1999/xhtml" class="labelBkg" style="display: table-cell; white-space: nowrap; line-height: 1.5; max-width: 200px; text-align: center;"><span class="edgeLabel"></span></div></foreignObject></g></g></g><g class="nodes"><g class="node default" id="g381939446-flowchart-K1-22" data-look="classic" transform="translate(175.5, 82)"><rect class="basic label-container" style="" x="-130" y="-39" width="260" height="78"></rect><g class="label" style="" transform="translate(-100, -24)"><rect></rect><foreignObject width="200" height="48"><div xmlns="http://www.w3.org/1999/xhtml" style="display: table; white-space: break-spaces; line-height: 1.5; max-width: 200px; text-align: center; width: 200px;"><span class="nodeLabel"><p>13 files from SEBI, AMFI, NCFE material</p></span></div></foreignObject></g></g><g class="node default" id="g381939446-flowchart-K2-23" data-look="classic" transform="translate(510.5, 82)"><rect class="basic label-container" style="" x="-130" y="-39" width="260" height="78"></rect><g class="label" style="" transform="translate(-100, -24)"><rect></rect><foreignObject width="200" height="48"><div xmlns="http://www.w3.org/1999/xhtml" style="display: table; white-space: break-spaces; line-height: 1.5; max-width: 200px; text-align: center; width: 200px;"><span class="nodeLabel"><p>FAISS + OpenAI embeddings</p></span></div></foreignObject></g></g><g class="node default" id="g381939446-flowchart-K3-24" data-look="classic" transform="translate(795.75, 82)"><rect class="basic label-container" style="" x="-80.25" y="-27" width="160.5" height="54"></rect><g class="label" style="" transform="translate(-50.25, -12)"><rect></rect><foreignObject width="100.5" height="24"><div xmlns="http://www.w3.org/1999/xhtml" style="display: table-cell; white-space: nowrap; line-height: 1.5; max-width: 200px; text-align: center;"><span class="nodeLabel"><p>BM25 fallback</p></span></div></foreignObject></g></g></g></g><g class="root" transform="translate(0, 647)"><g class="clusters"><g class="cluster" id="g381939446-TOOLS" data-look="classic"><rect style="" x="8" y="8" width="1398.625" height="124"></rect><g class="cluster-label" transform="translate(581.0390625, 8)"><foreignObject width="252.546875" height="24"><div xmlns="http://www.w3.org/1999/xhtml" style="display: table-cell; white-space: nowrap; line-height: 1.5;"><span class="nodeLabel"><p>4a. Python tools  (tools/)  NUMBERS</p></span></div></foreignObject></g></g></g><g class="edgePaths"><path d="M131.297,70L137.547,70C143.797,70,156.297,70,168.797,70C181.297,70,193.797,70,200.047,70L206.297,70" id="g381939446-L_T1_T2_0" class="edge-thickness-invisible edge-pattern-solid" style=";" data-edge="true" data-et="edge" data-id="L_T1_T2_0" data-points="W3sieCI6MTMxLjI5Njg3NSwieSI6NzB9LHsieCI6MTY4Ljc5Njg3NSwieSI6NzB9LHsieCI6MjA2LjI5Njg3NSwieSI6NzB9XQ==" data-look="classic"></path><path d="M355.234,70L361.484,70C367.734,70,380.234,70,392.734,70C405.234,70,417.734,70,423.984,70L430.234,70" id="g381939446-L_T2_T3_0" class="edge-thickness-invisible edge-pattern-solid" style=";" data-edge="true" data-et="edge" data-id="L_T2_T3_0" data-points="W3sieCI6MzU1LjIzNDM3NSwieSI6NzB9LHsieCI6MzkyLjczNDM3NSwieSI6NzB9LHsieCI6NDMwLjIzNDM3NSwieSI6NzB9XQ==" data-look="classic"></path><path d="M546.281,70L552.531,70C558.781,70,571.281,70,583.781,70C596.281,70,608.781,70,615.031,70L621.281,70" id="g381939446-L_T3_T4_0" class="edge-thickness-invisible edge-pattern-solid" style=";" data-edge="true" data-et="edge" data-id="L_T3_T4_0" data-points="W3sieCI6NTQ2LjI4MTI1LCJ5Ijo3MH0seyJ4Ijo1ODMuNzgxMjUsInkiOjcwfSx7IngiOjYyMS4yODEyNSwieSI6NzB9XQ==" data-look="classic"></path><path d="M746.219,70L752.469,70C758.719,70,771.219,70,783.719,70C796.219,70,808.719,70,814.969,70L821.219,70" id="g381939446-L_T4_T5_0" class="edge-thickness-invisible edge-pattern-solid" style=";" data-edge="true" data-et="edge" data-id="L_T4_T5_0" data-points="W3sieCI6NzQ2LjIxODc1LCJ5Ijo3MH0seyJ4Ijo3ODMuNzE4NzUsInkiOjcwfSx7IngiOjgyMS4yMTg3NSwieSI6NzB9XQ==" data-look="classic"></path><path d="M927.469,70L933.719,70C939.969,70,952.469,70,964.969,70C977.469,70,989.969,70,996.219,70L1002.469,70" id="g381939446-L_T5_T6_0" class="edge-thickness-invisible edge-pattern-solid" style=";" data-edge="true" data-et="edge" data-id="L_T5_T6_0" data-points="W3sieCI6OTI3LjQ2ODc1LCJ5Ijo3MH0seyJ4Ijo5NjQuOTY4NzUsInkiOjcwfSx7IngiOjEwMDIuNDY4NzUsInkiOjcwfV0=" data-look="classic"></path><path d="M1125.625,70L1131.875,70C1138.125,70,1150.625,70,1163.125,70C1175.625,70,1188.125,70,1194.375,70L1200.625,70" id="g381939446-L_T6_T7_0" class="edge-thickness-invisible edge-pattern-solid" style=";" data-edge="true" data-et="edge" data-id="L_T6_T7_0" data-points="W3sieCI6MTEyNS42MjUsInkiOjcwfSx7IngiOjExNjMuMTI1LCJ5Ijo3MH0seyJ4IjoxMjAwLjYyNSwieSI6NzB9XQ==" data-look="classic"></path></g><g class="edgeLabels"><g class="edgeLabel"><g class="label" data-id="L_T1_T2_0" transform="translate(0, 0)"><foreignObject width="0" height="0"><div xmlns="http://www.w3.org/1999/xhtml" class="labelBkg" style="display: table-cell; white-space: nowrap; line-height: 1.5; max-width: 200px; text-align: center;"><span class="edgeLabel"></span></div></foreignObject></g></g><g class="edgeLabel"><g class="label" data-id="L_T2_T3_0" transform="translate(0, 0)"><foreignObject width="0" height="0"><div xmlns="http://www.w3.org/1999/xhtml" class="labelBkg" style="display: table-cell; white-space: nowrap; line-height: 1.5; max-width: 200px; text-align: center;"><span class="edgeLabel"></span></div></foreignObject></g></g><g class="edgeLabel"><g class="label" data-id="L_T3_T4_0" transform="translate(0, 0)"><foreignObject width="0" height="0"><div xmlns="http://www.w3.org/1999/xhtml" class="labelBkg" style="display: table-cell; white-space: nowrap; line-height: 1.5; max-width: 200px; text-align: center;"><span class="edgeLabel"></span></div></foreignObject></g></g><g class="edgeLabel"><g class="label" data-id="L_T4_T5_0" transform="translate(0, 0)"><foreignObject width="0" height="0"><div xmlns="http://www.w3.org/1999/xhtml" class="labelBkg" style="display: table-cell; white-space: nowrap; line-height: 1.5; max-width: 200px; text-align: center;"><span class="edgeLabel"></span></div></foreignObject></g></g><g class="edgeLabel"><g class="label" data-id="L_T5_T6_0" transform="translate(0, 0)"><foreignObject width="0" height="0"><div xmlns="http://www.w3.org/1999/xhtml" class="labelBkg" style="display: table-cell; white-space: nowrap; line-height: 1.5; max-width: 200px; text-align: center;"><span class="edgeLabel"></span></div></foreignObject></g></g><g class="edgeLabel"><g class="label" data-id="L_T6_T7_0" transform="translate(0, 0)"><foreignObject width="0" height="0"><div xmlns="http://www.w3.org/1999/xhtml" class="labelBkg" style="display: table-cell; white-space: nowrap; line-height: 1.5; max-width: 200px; text-align: center;"><span class="edgeLabel"></span></div></foreignObject></g></g></g><g class="nodes"><g class="node default" id="g381939446-flowchart-T1-14" data-look="classic" transform="translate(88.3984375, 70)"><rect class="basic label-container" style="" x="-42.8984375" y="-27" width="85.796875" height="54"></rect><g class="label" style="" transform="translate(-12.8984375, -12)"><rect></rect><foreignObject width="25.796875" height="24"><div xmlns="http://www.w3.org/1999/xhtml" style="display: table-cell; white-space: nowrap; line-height: 1.5; max-width: 200px; text-align: center;"><span class="nodeLabel"><p>SIP</p></span></div></foreignObject></g></g><g class="node default" id="g381939446-flowchart-T2-15" data-look="classic" transform="translate(280.765625, 70)"><rect class="basic label-container" style="" x="-74.46875" y="-27" width="148.9375" height="54"></rect><g class="label" style="" transform="translate(-44.46875, -12)"><rect></rect><foreignObject width="88.9375" height="24"><div xmlns="http://www.w3.org/1999/xhtml" style="display: table-cell; white-space: nowrap; line-height: 1.5; max-width: 200px; text-align: center;"><span class="nodeLabel"><p>Future value</p></span></div></foreignObject></g></g><g class="node default" id="g381939446-flowchart-T3-16" data-look="classic" transform="translate(488.2578125, 70)"><rect class="basic label-container" style="" x="-58.0234375" y="-27" width="116.046875" height="54"></rect><g class="label" style="" transform="translate(-28.0234375, -12)"><rect></rect><foreignObject width="56.046875" height="24"><div xmlns="http://www.w3.org/1999/xhtml" style="display: table-cell; white-space: nowrap; line-height: 1.5; max-width: 200px; text-align: center;"><span class="nodeLabel"><p>Inflation</p></span></div></foreignObject></g></g><g class="node default" id="g381939446-flowchart-T4-17" data-look="classic" transform="translate(683.75, 70)"><rect class="basic label-container" style="" x="-62.46875" y="-27" width="124.9375" height="54"></rect><g class="label" style="" transform="translate(-32.46875, -12)"><rect></rect><foreignObject width="64.9375" height="24"><div xmlns="http://www.w3.org/1999/xhtml" style="display: table-cell; white-space: nowrap; line-height: 1.5; max-width: 200px; text-align: center;"><span class="nodeLabel"><p>Goal gap</p></span></div></foreignObject></g></g><g class="node default" id="g381939446-flowchart-T5-18" data-look="classic" transform="translate(874.34375, 70)"><rect class="basic label-container" style="" x="-53.125" y="-27" width="106.25" height="54"></rect><g class="label" style="" transform="translate(-23.125, -12)"><rect></rect><foreignObject width="46.25" height="24"><div xmlns="http://www.w3.org/1999/xhtml" style="display: table-cell; white-space: nowrap; line-height: 1.5; max-width: 200px; text-align: center;"><span class="nodeLabel"><p>Health</p></span></div></foreignObject></g></g><g class="node default" id="g381939446-flowchart-T6-19" data-look="classic" transform="translate(1064.046875, 70)"><rect class="basic label-container" style="" x="-61.578125" y="-27" width="123.15625" height="54"></rect><g class="label" style="" transform="translate(-31.578125, -12)"><rect></rect><foreignObject width="63.15625" height="24"><div xmlns="http://www.w3.org/1999/xhtml" style="display: table-cell; white-space: nowrap; line-height: 1.5; max-width: 200px; text-align: center;"><span class="nodeLabel"><p>Scenario</p></span></div></foreignObject></g></g><g class="node default" id="g381939446-flowchart-T7-20" data-look="classic" transform="translate(1284.875, 70)"><rect class="basic label-container" style="" x="-84.25" y="-27" width="168.5" height="54"></rect><g class="label" style="" transform="translate(-54.25, -12)"><rect></rect><foreignObject width="108.5" height="24"><div xmlns="http://www.w3.org/1999/xhtml" style="display: table-cell; white-space: nowrap; line-height: 1.5; max-width: 200px; text-align: center;"><span class="nodeLabel"><p>Allocation rules</p></span></div></foreignObject></g></g></g></g><g class="root" transform="translate(720.3203125, 461)"><g class="clusters"><g class="cluster" id="g381939446-AGENTS" data-look="classic"><rect style="" x="8" y="8" width="1671.609375" height="124"></rect><g class="cluster-label" transform="translate(776.6484375, 8)"><foreignObject width="134.3125" height="24"><div xmlns="http://www.w3.org/1999/xhtml" style="display: table-cell; white-space: nowrap; line-height: 1.5;"><span class="nodeLabel"><p>3. Agents  (agents/)</p></span></div></foreignObject></g></g></g><g class="edgePaths"><path d="M204.219,70L210.469,70C216.719,70,229.219,70,241.719,70C254.219,70,266.719,70,272.969,70L279.219,70" id="g381939446-L_A1_A2_0" class="edge-thickness-invisible edge-pattern-solid" style=";" data-edge="true" data-et="edge" data-id="L_A1_A2_0" data-points="W3sieCI6MjA0LjIxODc1LCJ5Ijo3MH0seyJ4IjoyNDEuNzE4NzUsInkiOjcwfSx7IngiOjI3OS4yMTg3NSwieSI6NzB9XQ==" data-look="classic"></path><path d="M432.578,70L438.828,70C445.078,70,457.578,70,470.078,70C482.578,70,495.078,70,501.328,70L507.578,70" id="g381939446-L_A2_A3_0" class="edge-thickness-invisible edge-pattern-solid" style=";" data-edge="true" data-et="edge" data-id="L_A2_A3_0" data-points="W3sieCI6NDMyLjU3ODEyNSwieSI6NzB9LHsieCI6NDcwLjA3ODEyNSwieSI6NzB9LHsieCI6NTA3LjU3ODEyNSwieSI6NzB9XQ==" data-look="classic"></path><path d="M699.219,70L705.469,70C711.719,70,724.219,70,736.719,70C749.219,70,761.719,70,767.969,70L774.219,70" id="g381939446-L_A3_A4_0" class="edge-thickness-invisible edge-pattern-solid" style=";" data-edge="true" data-et="edge" data-id="L_A3_A4_0" data-points="W3sieCI6Njk5LjIxODc1LCJ5Ijo3MH0seyJ4Ijo3MzYuNzE4NzUsInkiOjcwfSx7IngiOjc3NC4yMTg3NSwieSI6NzB9XQ==" data-look="classic"></path><path d="M981.859,70L988.109,70C994.359,70,1006.859,70,1019.359,70C1031.859,70,1044.359,70,1050.609,70L1056.859,70" id="g381939446-L_A4_A5_0" class="edge-thickness-invisible edge-pattern-solid" style=";" data-edge="true" data-et="edge" data-id="L_A4_A5_0" data-points="W3sieCI6OTgxLjg1OTM3NSwieSI6NzB9LHsieCI6MTAxOS4zNTkzNzUsInkiOjcwfSx7IngiOjEwNTYuODU5Mzc1LCJ5Ijo3MH1d" data-look="classic"></path><path d="M1235.156,70L1241.406,70C1247.656,70,1260.156,70,1272.656,70C1285.156,70,1297.656,70,1303.906,70L1310.156,70" id="g381939446-L_A5_A6_0" class="edge-thickness-invisible edge-pattern-solid" style=";" data-edge="true" data-et="edge" data-id="L_A5_A6_0" data-points="W3sieCI6MTIzNS4xNTYyNSwieSI6NzB9LHsieCI6MTI3Mi42NTYyNSwieSI6NzB9LHsieCI6MTMxMC4xNTYyNSwieSI6NzB9XQ==" data-look="classic"></path><path d="M1461.75,70L1468,70C1474.25,70,1486.75,70,1499.25,70C1511.75,70,1524.25,70,1530.5,70L1536.75,70" id="g381939446-L_A6_A7_0" class="edge-thickness-invisible edge-pattern-solid" style=";" data-edge="true" data-et="edge" data-id="L_A6_A7_0" data-points="W3sieCI6MTQ2MS43NSwieSI6NzB9LHsieCI6MTQ5OS4yNSwieSI6NzB9LHsieCI6MTUzNi43NSwieSI6NzB9XQ==" data-look="classic"></path></g><g class="edgeLabels"><g class="edgeLabel"><g class="label" data-id="L_A1_A2_0" transform="translate(0, 0)"><foreignObject width="0" height="0"><div xmlns="http://www.w3.org/1999/xhtml" class="labelBkg" style="display: table-cell; white-space: nowrap; line-height: 1.5; max-width: 200px; text-align: center;"><span class="edgeLabel"></span></div></foreignObject></g></g><g class="edgeLabel"><g class="label" data-id="L_A2_A3_0" transform="translate(0, 0)"><foreignObject width="0" height="0"><div xmlns="http://www.w3.org/1999/xhtml" class="labelBkg" style="display: table-cell; white-space: nowrap; line-height: 1.5; max-width: 200px; text-align: center;"><span class="edgeLabel"></span></div></foreignObject></g></g><g class="edgeLabel"><g class="label" data-id="L_A3_A4_0" transform="translate(0, 0)"><foreignObject width="0" height="0"><div xmlns="http://www.w3.org/1999/xhtml" class="labelBkg" style="display: table-cell; white-space: nowrap; line-height: 1.5; max-width: 200px; text-align: center;"><span class="edgeLabel"></span></div></foreignObject></g></g><g class="edgeLabel"><g class="label" data-id="L_A4_A5_0" transform="translate(0, 0)"><foreignObject width="0" height="0"><div xmlns="http://www.w3.org/1999/xhtml" class="labelBkg" style="display: table-cell; white-space: nowrap; line-height: 1.5; max-width: 200px; text-align: center;"><span class="edgeLabel"></span></div></foreignObject></g></g><g class="edgeLabel"><g class="label" data-id="L_A5_A6_0" transform="translate(0, 0)"><foreignObject width="0" height="0"><div xmlns="http://www.w3.org/1999/xhtml" class="labelBkg" style="display: table-cell; white-space: nowrap; line-height: 1.5; max-width: 200px; text-align: center;"><span class="edgeLabel"></span></div></foreignObject></g></g><g class="edgeLabel"><g class="label" data-id="L_A6_A7_0" transform="translate(0, 0)"><foreignObject width="0" height="0"><div xmlns="http://www.w3.org/1999/xhtml" class="labelBkg" style="display: table-cell; white-space: nowrap; line-height: 1.5; max-width: 200px; text-align: center;"><span class="edgeLabel"></span></div></foreignObject></g></g></g><g class="nodes"><g class="node default" id="g381939446-flowchart-A1-7" data-look="classic" transform="translate(124.859375, 70)"><rect class="basic label-container" style="" x="-79.359375" y="-27" width="158.71875" height="54"></rect><g class="label" style="" transform="translate(-49.359375, -12)"><rect></rect><foreignObject width="98.71875" height="24"><div xmlns="http://www.w3.org/1999/xhtml" style="display: table-cell; white-space: nowrap; line-height: 1.5; max-width: 200px; text-align: center;"><span class="nodeLabel"><p>Profile &amp; Goal</p></span></div></foreignObject></g></g><g class="node default" id="g381939446-flowchart-A2-8" data-look="classic" transform="translate(355.8984375, 70)"><rect class="basic label-container" style="" x="-76.6796875" y="-27" width="153.359375" height="54"></rect><g class="label" style="" transform="translate(-46.6796875, -12)"><rect></rect><foreignObject width="93.359375" height="24"><div xmlns="http://www.w3.org/1999/xhtml" style="display: table-cell; white-space: nowrap; line-height: 1.5; max-width: 200px; text-align: center;"><span class="nodeLabel"><p>Risk Profiling</p></span></div></foreignObject></g></g><g class="node default" id="g381939446-flowchart-A3-9" data-look="classic" transform="translate(603.3984375, 70)"><rect class="basic label-container" style="" x="-95.8203125" y="-27" width="191.640625" height="54"></rect><g class="label" style="" transform="translate(-65.8203125, -12)"><rect></rect><foreignObject width="131.640625" height="24"><div xmlns="http://www.w3.org/1999/xhtml" style="display: table-cell; white-space: nowrap; line-height: 1.5; max-width: 200px; text-align: center;"><span class="nodeLabel"><p>Portfolio Allocation</p></span></div></foreignObject></g></g><g class="node default" id="g381939446-flowchart-A4-10" data-look="classic" transform="translate(878.0390625, 70)"><rect class="basic label-container" style="" x="-103.8203125" y="-27" width="207.640625" height="54"></rect><g class="label" style="" transform="translate(-73.8203125, -12)"><rect></rect><foreignObject width="147.640625" height="24"><div xmlns="http://www.w3.org/1999/xhtml" style="display: table-cell; white-space: nowrap; line-height: 1.5; max-width: 200px; text-align: center;"><span class="nodeLabel"><p>Financial Calculation</p></span></div></foreignObject></g></g><g class="node default" id="g381939446-flowchart-A5-11" data-look="classic" transform="translate(1146.0078125, 70)"><rect class="basic label-container" style="" x="-89.1484375" y="-27" width="178.296875" height="54"></rect><g class="label" style="" transform="translate(-59.1484375, -12)"><rect></rect><foreignObject width="118.296875" height="24"><div xmlns="http://www.w3.org/1999/xhtml" style="display: table-cell; white-space: nowrap; line-height: 1.5; max-width: 200px; text-align: center;"><span class="nodeLabel"><p>RAG Knowledge</p></span></div></foreignObject></g></g><g class="node default" id="g381939446-flowchart-A6-12" data-look="classic" transform="translate(1385.953125, 70)"><rect class="basic label-container" style="" x="-75.796875" y="-27" width="151.59375" height="54"></rect><g class="label" style="" transform="translate(-45.796875, -12)"><rect></rect><foreignObject width="91.59375" height="24"><div xmlns="http://www.w3.org/1999/xhtml" style="display: table-cell; white-space: nowrap; line-height: 1.5; max-width: 200px; text-align: center;"><span class="nodeLabel"><p>Final Advisor</p></span></div></foreignObject></g></g><g class="node default" id="g381939446-flowchart-A7-13" data-look="classic" transform="translate(1589.4296875, 70)"><rect class="basic label-container" style="" x="-52.6796875" y="-27" width="105.359375" height="54"></rect><g class="label" style="" transform="translate(-22.6796875, -12)"><rect></rect><foreignObject width="45.359375" height="24"><div xmlns="http://www.w3.org/1999/xhtml" style="display: table-cell; white-space: nowrap; line-height: 1.5; max-width: 200px; text-align: center;"><span class="nodeLabel"><p>Safety</p></span></div></foreignObject></g></g></g></g><g class="root" transform="translate(1303.71875, 287)"><g class="clusters"><g class="cluster" id="g381939446-ORCH" data-look="classic"><rect style="" x="8" y="8" width="504.8125" height="124"></rect><g class="cluster-label" transform="translate(132.34375, 8)"><foreignObject width="256.125" height="24"><div xmlns="http://www.w3.org/1999/xhtml" style="display: table-cell; white-space: nowrap; line-height: 1.5;"><span class="nodeLabel"><p>2. Orchestrator: LangGraph  (graph/)</p></span></div></foreignObject></g></g></g><g class="edgePaths"><path d="M182.891,70L189.141,70C195.391,70,207.891,70,220.391,70C232.891,70,245.391,70,251.641,70L257.891,70" id="g381939446-L_G1_G2_0" class="edge-thickness-invisible edge-pattern-solid" style=";" data-edge="true" data-et="edge" data-id="L_G1_G2_0" data-points="W3sieCI6MTgyLjg5MDYyNSwieSI6NzB9LHsieCI6MjIwLjM5MDYyNSwieSI6NzB9LHsieCI6MjU3Ljg5MDYyNSwieSI6NzB9XQ==" data-look="classic"></path></g><g class="edgeLabels"><g class="edgeLabel"><g class="label" data-id="L_G1_G2_0" transform="translate(0, 0)"><foreignObject width="0" height="0"><div xmlns="http://www.w3.org/1999/xhtml" class="labelBkg" style="display: table-cell; white-space: nowrap; line-height: 1.5; max-width: 200px; text-align: center;"><span class="edgeLabel"></span></div></foreignObject></g></g></g><g class="nodes"><g class="node default" id="g381939446-flowchart-G1-5" data-look="classic" transform="translate(114.1953125, 70)"><rect class="basic label-container" style="" x="-68.6953125" y="-27" width="137.390625" height="54"></rect><g class="label" style="" transform="translate(-38.6953125, -12)"><rect></rect><foreignObject width="77.390625" height="24"><div xmlns="http://www.w3.org/1999/xhtml" style="display: table-cell; white-space: nowrap; line-height: 1.5; max-width: 200px; text-align: center;"><span class="nodeLabel"><p>Plan graph</p></span></div></foreignObject></g></g><g class="node default" id="g381939446-flowchart-G2-6" data-look="classic" transform="translate(366.6015625, 70)"><rect class="basic label-container" style="" x="-108.7109375" y="-27" width="217.421875" height="54"></rect><g class="label" style="" transform="translate(-78.7109375, -12)"><rect></rect><foreignObject width="157.421875" height="24"><div xmlns="http://www.w3.org/1999/xhtml" style="display: table-cell; white-space: nowrap; line-height: 1.5; max-width: 200px; text-align: center;"><span class="nodeLabel"><p>Q&amp;A graph with router</p></span></div></foreignObject></g></g></g></g><g class="root" transform="translate(951.1328125, 89)"><g class="clusters"><g class="cluster" id="g381939446-UI" data-look="classic"><rect style="" x="8" y="8" width="1209.984375" height="148"></rect><g class="cluster-label" transform="translate(487.3046875, 8)"><foreignObject width="251.375" height="24"><div xmlns="http://www.w3.org/1999/xhtml" style="display: table-cell; white-space: nowrap; line-height: 1.5;"><span class="nodeLabel"><p>1. Streamlit Dashboard  (app.py, ui/)</p></span></div></foreignObject></g></g></g><g class="edgePaths"><path d="M286.875,82L293.125,82C299.375,82,311.875,82,324.375,82C336.875,82,349.375,82,355.625,82L361.875,82" id="g381939446-L_P1_P2_0" class="edge-thickness-invisible edge-pattern-solid" style=";" data-edge="true" data-et="edge" data-id="L_P1_P2_0" data-points="W3sieCI6Mjg2Ljg3NSwieSI6ODJ9LHsieCI6MzI0LjM3NSwieSI6ODJ9LHsieCI6MzYxLjg3NSwieSI6ODJ9XQ==" data-look="classic"></path><path d="M621.875,82L628.125,82C634.375,82,646.875,82,659.375,82C671.875,82,684.375,82,690.625,82L696.875,82" id="g381939446-L_P2_P3_0" class="edge-thickness-invisible edge-pattern-solid" style=";" data-edge="true" data-et="edge" data-id="L_P2_P3_0" data-points="W3sieCI6NjIxLjg3NSwieSI6ODJ9LHsieCI6NjU5LjM3NSwieSI6ODJ9LHsieCI6Njk2Ljg3NSwieSI6ODJ9XQ==" data-look="classic"></path><path d="M863.594,82L869.844,82C876.094,82,888.594,82,901.094,82C913.594,82,926.094,82,932.344,82L938.594,82" id="g381939446-L_P3_P4_0" class="edge-thickness-invisible edge-pattern-solid" style=";" data-edge="true" data-et="edge" data-id="L_P3_P4_0" data-points="W3sieCI6ODYzLjU5Mzc1LCJ5Ijo4Mn0seyJ4Ijo5MDEuMDkzNzUsInkiOjgyfSx7IngiOjkzOC41OTM3NSwieSI6ODJ9XQ==" data-look="classic"></path></g><g class="edgeLabels"><g class="edgeLabel"><g class="label" data-id="L_P1_P2_0" transform="translate(0, 0)"><foreignObject width="0" height="0"><div xmlns="http://www.w3.org/1999/xhtml" class="labelBkg" style="display: table-cell; white-space: nowrap; line-height: 1.5; max-width: 200px; text-align: center;"><span class="edgeLabel"></span></div></foreignObject></g></g><g class="edgeLabel"><g class="label" data-id="L_P2_P3_0" transform="translate(0, 0)"><foreignObject width="0" height="0"><div xmlns="http://www.w3.org/1999/xhtml" class="labelBkg" style="display: table-cell; white-space: nowrap; line-height: 1.5; max-width: 200px; text-align: center;"><span class="edgeLabel"></span></div></foreignObject></g></g><g class="edgeLabel"><g class="label" data-id="L_P3_P4_0" transform="translate(0, 0)"><foreignObject width="0" height="0"><div xmlns="http://www.w3.org/1999/xhtml" class="labelBkg" style="display: table-cell; white-space: nowrap; line-height: 1.5; max-width: 200px; text-align: center;"><span class="edgeLabel"></span></div></foreignObject></g></g></g><g class="nodes"><g class="node default" id="g381939446-flowchart-P1-1" data-look="classic" transform="translate(166.1875, 82)"><rect class="basic label-container" style="" x="-120.6875" y="-27" width="241.375" height="54"></rect><g class="label" style="" transform="translate(-90.6875, -12)"><rect></rect><foreignObject width="181.375" height="24"><div xmlns="http://www.w3.org/1999/xhtml" style="display: table-cell; white-space: nowrap; line-height: 1.5; max-width: 200px; text-align: center;"><span class="nodeLabel"><p>Profile / Goal / Risk forms</p></span></div></foreignObject></g></g><g class="node default" id="g381939446-flowchart-P2-2" data-look="classic" transform="translate(491.875, 82)"><rect class="basic label-container" style="" x="-130" y="-39" width="260" height="78"></rect><g class="label" style="" transform="translate(-100, -24)"><rect></rect><foreignObject width="200" height="48"><div xmlns="http://www.w3.org/1999/xhtml" style="display: table; white-space: break-spaces; line-height: 1.5; max-width: 200px; text-align: center; width: 200px;"><span class="nodeLabel"><p>Analysis, Goal, Portfolio, What If</p></span></div></foreignObject></g></g><g class="node default" id="g381939446-flowchart-P3-3" data-look="classic" transform="translate(780.234375, 82)"><rect class="basic label-container" style="" x="-83.359375" y="-27" width="166.71875" height="54"></rect><g class="label" style="" transform="translate(-53.359375, -12)"><rect></rect><foreignObject width="106.71875" height="24"><div xmlns="http://www.w3.org/1999/xhtml" style="display: table-cell; white-space: nowrap; line-height: 1.5; max-width: 200px; text-align: center;"><span class="nodeLabel"><p>AI Advisor chat</p></span></div></foreignObject></g></g><g class="node default" id="g381939446-flowchart-P4-4" data-look="classic" transform="translate(1059.5390625, 82)"><rect class="basic label-container" style="" x="-120.9453125" y="-27" width="241.890625" height="54"></rect><g class="label" style="" transform="translate(-90.9453125, -12)"><rect></rect><foreignObject width="181.890625" height="24"><div xmlns="http://www.w3.org/1999/xhtml" style="display: table-cell; white-space: nowrap; line-height: 1.5; max-width: 200px; text-align: center;"><span class="nodeLabel"><p>Final Report + downloads</p></span></div></foreignObject></g></g></g></g><g class="node default" id="g381939446-flowchart-U-0" data-look="classic" transform="translate(1564.125, 27.5)"><g class="basic label-container outer-path"><path d="M-9.765625 -19.5 C-4.055692972398697 -19.5, 1.6542390552026056 -19.5, 9.765625 -19.5 C9.765625 -19.5, 9.765624999999998 -19.5, 9.765624999999998 -19.5 C10.259778749506836 -19.48415345106524, 10.753932499013676 -19.46830690213048, 11.0149942896239 -19.45993515863156 C11.416305887085771 -19.42122111147222, 11.817617484547643 -19.382507064312883, 12.259229652847864 -19.3399052695533 C12.583592242964695 -19.287464841452664, 12.907954833081527 -19.235024413352033, 13.493218259676757 -19.140403561325776 C13.819227190944211 -19.065994150171072, 14.145236122211665 -18.991584739016368, 14.71188938623539 -18.862249829261074 C14.985542289117134 -18.78103108411917, 15.259195191998879 -18.69981233897727, 15.910235251460602 -18.50658706670804 C16.155385940468506 -18.416369347005002, 16.40053662947641 -18.326151627301968, 17.083331595147794 -18.074876768247425 C17.443488963353957 -17.91544578503129, 17.80364633156012 -17.75601480181516, 18.22635791279238 -17.568892924097174 C18.50135127872182 -17.425429061233444, 18.77634464465126 -17.28196519836971, 19.334617264076783 -16.990714730406097 C19.736619229900462 -16.747018776298006, 20.138621195724138 -16.503322822189915, 20.403555573605697 -16.342718045390892 C20.74152728129494 -16.1069636126663, 21.07949898898418 -15.871209179941708, 21.428780344578712 -15.627565626425154 C21.78639348749933 -15.342378661431363, 22.14400663041994 -15.057191696437572, 22.40607870850187 -14.848196188198123 C22.645928764664724 -14.63037071327575, 22.88577882082758 -14.41254523835338, 23.331434736767985 -14.007812326905688 C23.509718683492803 -13.823719514528069, 23.68800263021762 -13.63962670215045, 24.201045942968648 -13.10986736009568 C24.498071686303863 -12.760964020730551, 24.795097429639082 -12.412060681365421, 25.011338908126582 -12.158051136245305 C25.237714860682896 -11.854727983093383, 25.464090813239206 -11.551404829941463, 25.758983964640635 -11.156274872382312 C26.03111930238898 -10.738201915030704, 26.303254640137325 -10.320128957679096, 26.440908878604247 -10.108655082055241 C26.588814479810885 -9.846033710046678, 26.73672008101752 -9.583412338038116, 27.0543114742735 -9.019496659696287 C27.25089764334964 -8.6112812733395, 27.447483812425777 -8.203065886982714, 27.59667114880834 -7.893275190886684 C27.77299714108316 -7.457746580936733, 27.949323133357982 -7.022217970986782, 28.065759229970325 -6.734618561215508 C28.20717608174265 -6.308693535392728, 28.348592933514976 -5.8827685095699485, 28.45964813421488 -5.548287939305138 C28.561895340688153 -5.15837502680295, 28.664142547161426 -4.768462114300761, 28.77671928754556 -4.339158212148133 C28.85626709361788 -3.930697040401536, 28.9358148996902 -3.5222358686549384, 29.015669776581777 -3.1121979531509023 C29.053053985305073 -2.8222534126400447, 29.090438194028366 -2.5323088721291875, 29.175517702509367 -1.872449005199798 C29.19511987136739 -1.5671294026501879, 29.21472204022541 -1.2618098001005777, 29.255606215913414 -0.6250057626472757 C29.255606215913414 -0.21964070511401979, 29.255606215913414 0.18572435241923613, 29.255606215913414 0.625005762647271 C29.23253294778424 0.9843905381660019, 29.209459679655062 1.3437753136847328, 29.175517702509367 1.8724490051997846 C29.12672269302258 2.2508934631148136, 29.077927683535794 2.629337921029842, 29.015669776581777 3.1121979531508885 C28.93832447367543 3.5093497366394226, 28.860979170769085 3.9065015201279563, 28.77671928754556 4.339158212148129 C28.69786176803875 4.639876111092747, 28.61900424853194 4.940594010037365, 28.459648134214884 5.548287939305125 C28.377628068112628 5.795319310282275, 28.295608002010372 6.042350681259423, 28.06575922997033 6.734618561215495 C27.92683868624404 7.077754990065428, 27.78791814251775 7.420891418915362, 27.596671148808344 7.893275190886679 C27.483138983201126 8.129027161969262, 27.36960681759391 8.364779133051844, 27.054311474273504 9.019496659696284 C26.927406224562798 9.24482978110764, 26.800500974852095 9.470162902518995, 26.44090887860425 10.108655082055236 C26.22373173129622 10.442297500550024, 26.00655458398819 10.775939919044813, 25.75898396464064 11.156274872382301 C25.46646939257195 11.548217750328622, 25.173954820503255 11.940160628274944, 25.011338908126582 12.158051136245302 C24.810765966883704 12.393655525952859, 24.61019302564082 12.629259915660416, 24.20104594296866 13.10986736009567 C23.900469634077666 13.420237076799525, 23.59989332518667 13.73060679350338, 23.33143473676799 14.007812326905684 C23.140671728739225 14.1810582434848, 22.949908720710457 14.354304160063919, 22.406078708501887 14.848196188198111 C22.14852615880213 15.05358749282248, 21.890973609102375 15.258978797446849, 21.428780344578715 15.627565626425152 C21.04480753524094 15.89540843630417, 20.66083472590316 16.163251246183187, 20.403555573605708 16.34271804539089 C20.106452366163204 16.522823755714782, 19.809349158720696 16.702929466038675, 19.334617264076787 16.990714730406093 C19.044622742428682 17.142004686599552, 18.754628220780575 17.293294642793015, 18.226357912792388 17.56889292409717 C17.903891514199103 17.71163923312857, 17.581425115605818 17.85438554215997, 17.083331595147804 18.07487676824742 C16.709597632993365 18.212414321079127, 16.33586367083893 18.349951873910836, 15.910235251460616 18.506587066708033 C15.468632279845778 18.63765251066202, 15.027029308230938 18.768717954616005, 14.711889386235413 18.86224982926107 C14.373284678345703 18.939534144234678, 14.034679970455995 19.016818459208288, 13.493218259676766 19.140403561325773 C13.066670539945978 19.209364488724876, 12.64012282021519 19.27832541612398, 12.259229652847878 19.3399052695533 C11.908009469589924 19.373787058228125, 11.556789286331968 19.407668846902947, 11.0149942896239 19.45993515863156 C10.563748748673154 19.474405724833687, 10.112503207722407 19.488876291035815, 9.765625000000004 19.5 C9.765625000000002 19.5, 9.765625 19.5, 9.765625 19.5 C5.037090491554771 19.5, 0.30855598310954235 19.5, -9.765624999999996 19.5 C-10.19642328651931 19.486185137449322, -10.627221573038623 19.472370274898644, -11.014994289623893 19.45993515863156 C-11.315189636792516 19.43097567452793, -11.615384983961139 19.4020161904243, -12.259229652847871 19.3399052695533 C-12.67369526694397 19.27289768329508, -13.088160881040066 19.205890097036868, -13.493218259676759 19.140403561325773 C-13.907894367894832 19.045756445639494, -14.322570476112906 18.951109329953216, -14.711889386235388 18.862249829261074 C-15.161399497754083 18.72883758768905, -15.610909609272777 18.59542534611703, -15.910235251460593 18.506587066708043 C-16.209321719475295 18.39652048175363, -16.508408187489998 18.286453896799216, -17.083331595147797 18.074876768247425 C-17.312408067506436 17.97347140924637, -17.541484539865074 17.872066050245316, -18.22635791279238 17.568892924097174 C-18.588167686358606 17.380136996977892, -18.949977459924835 17.191381069858615, -19.33461726407678 16.990714730406097 C-19.729443839098398 16.75136854036949, -20.124270414120016 16.512022350332888, -20.403555573605686 16.3427180453909 C-20.66564194630775 16.159897937330154, -20.92772831900982 15.977077829269412, -21.428780344578712 15.627565626425156 C-21.727883421118754 15.389038882351615, -22.026986497658797 15.150512138278074, -22.40607870850187 14.848196188198125 C-22.700269417229027 14.58101997039173, -22.994460125956188 14.313843752585335, -23.331434736767974 14.007812326905697 C-23.63503883736955 13.694316166674346, -23.938642937971125 13.380820006442995, -24.201045942968655 13.109867360095677 C-24.447999320311894 12.81978187102306, -24.694952697655133 12.529696381950442, -25.01133890812658 12.158051136245307 C-25.20407270261524 11.89980541004039, -25.3968064971039 11.641559683835474, -25.758983964640635 11.156274872382316 C-25.914749129225093 10.916977750777313, -26.07051429380955 10.677680629172311, -26.440908878604244 10.108655082055249 C-26.62049752200278 9.789777260379058, -26.800086165401314 9.470899438702865, -27.0543114742735 9.019496659696289 C-27.16320012383446 8.79338704903909, -27.27208877339542 8.56727743838189, -27.59667114880834 7.893275190886686 C-27.72620392383022 7.57332673223681, -27.8557366988521 7.253378273586933, -28.065759229970325 6.73461856121551 C-28.176037404683374 6.402478269420837, -28.28631557939642 6.0703379776261635, -28.45964813421488 5.5482879393051325 C-28.582050792178862 5.081513554840931, -28.704453450142847 4.614739170376729, -28.776719287545557 4.339158212148136 C-28.837068324633147 4.029278661476862, -28.89741736172074 3.719399110805588, -29.015669776581777 3.112197953150904 C-29.073473157950655 2.663886341822612, -29.131276539319533 2.21557473049432, -29.175517702509364 1.872449005199809 C-29.207008172326816 1.381959519143252, -29.23849864214427 0.8914700330866949, -29.255606215913414 0.6250057626472781 C-29.255606215913414 0.3403897963048192, -29.255606215913414 0.055773829962360244, -29.255606215913414 -0.6250057626472687 C-29.230650795726703 -1.013706575707909, -29.205695375539992 -1.4024073887685493, -29.175517702509367 -1.8724490051997822 C-29.118884720831037 -2.3116832276497417, -29.062251739152707 -2.750917450099701, -29.015669776581777 -3.112197953150895 C-28.961219546325328 -3.391788377457532, -28.906769316068875 -3.6713788017641686, -28.77671928754556 -4.339158212148126 C-28.65001106056815 -4.8223515973059445, -28.52330283359074 -5.305544982463762, -28.459648134214884 -5.548287939305123 C-28.339573605690166 -5.909933287943538, -28.219499077165445 -6.271578636581953, -28.065759229970332 -6.734618561215485 C-27.94633781531352 -7.029591764273795, -27.826916400656707 -7.3245649673321065, -27.596671148808344 -7.893275190886676 C-27.462631677729682 -8.171611020566758, -27.32859220665102 -8.449946850246839, -27.054311474273504 -9.019496659696282 C-26.832073642214944 -9.414102434537005, -26.609835810156383 -9.80870820937773, -26.440908878604247 -10.108655082055243 C-26.235960477968856 -10.423510861782592, -26.031012077333465 -10.738366641509941, -25.75898396464064 -11.156274872382308 C-25.553171255011755 -11.432045153361445, -25.34735854538287 -11.707815434340583, -25.011338908126586 -12.158051136245302 C-24.789484789431828 -12.418653607921136, -24.56763067073707 -12.679256079596971, -24.201045942968662 -13.10986736009567 C-23.976205126132292 -13.34203396325359, -23.751364309295923 -13.574200566411507, -23.331434736767996 -14.007812326905677 C-23.00499398026062 -14.304277184816563, -22.678553223753237 -14.600742042727449, -22.406078708501887 -14.848196188198107 C-22.058163571278904 -15.125649251722809, -21.71024843405592 -15.40310231524751, -21.42878034457872 -15.627565626425149 C-21.11549978905646 -15.846096580260806, -20.8022192335342 -16.064627534096463, -20.40355557360571 -16.342718045390885 C-20.179925847216612 -16.478283699722102, -19.956296120827513 -16.61384935405332, -19.33461726407679 -16.99071473040609 C-19.077211083772394 -17.125003369794367, -18.819804903467997 -17.259292009182644, -18.226357912792388 -17.56889292409717 C-17.953300192862937 -17.689767476740467, -17.680242472933486 -17.810642029383768, -17.083331595147804 -18.07487676824742 C-16.714945298595342 -18.210446330704322, -16.346559002042884 -18.346015893161223, -15.910235251460618 -18.506587066708033 C-15.50896445096649 -18.625682133981275, -15.107693650472362 -18.74477720125452, -14.711889386235413 -18.862249829261067 C-14.354534526049123 -18.943813744140193, -13.997179665862832 -19.02537765901932, -13.493218259676768 -19.140403561325773 C-13.211997086008747 -19.185869219781644, -12.930775912340726 -19.23133487823752, -12.25922965284788 -19.3399052695533 C-11.929515151679158 -19.371712430941344, -11.599800650510435 -19.403519592329385, -11.014994289623903 -19.45993515863156 C-10.564260359539077 -19.474389318469008, -10.113526429454252 -19.488843478306453, -9.765625000000005 -19.5 C-9.765625000000004 -19.5, -9.765625000000004 -19.5, -9.765625 -19.5" stroke="none" stroke-width="0" fill="#ECECFF" style=""></path><path d="M-9.765625 -19.5 C-3.9763082012892372 -19.5, 1.8130085974215255 -19.5, 9.765625 -19.5 M-9.765625 -19.5 C-2.095491512544595 -19.5, 5.57464197491081 -19.5, 9.765625 -19.5 M9.765625 -19.5 C9.765625 -19.5, 9.765624999999998 -19.5, 9.765624999999998 -19.5 M9.765625 -19.5 C9.765625 -19.5, 9.765624999999998 -19.5, 9.765624999999998 -19.5 M9.765624999999998 -19.5 C10.153291483964043 -19.48756829040631, 10.540957967928087 -19.475136580812617, 11.0149942896239 -19.45993515863156 M9.765624999999998 -19.5 C10.066440337066815 -19.4903534376418, 10.367255674133634 -19.4807068752836, 11.0149942896239 -19.45993515863156 M11.0149942896239 -19.45993515863156 C11.349590053498128 -19.42765710770089, 11.684185817372354 -19.395379056770228, 12.259229652847864 -19.3399052695533 M11.0149942896239 -19.45993515863156 C11.310798814753253 -19.43139925184932, 11.606603339882605 -19.402863345067082, 12.259229652847864 -19.3399052695533 M12.259229652847864 -19.3399052695533 C12.727763936535796 -19.26415628010427, 13.19629822022373 -19.188407290655245, 13.493218259676757 -19.140403561325776 M12.259229652847864 -19.3399052695533 C12.629512848636498 -19.280040754047263, 12.999796044425132 -19.220176238541228, 13.493218259676757 -19.140403561325776 M13.493218259676757 -19.140403561325776 C13.855531140567589 -19.05770801057495, 14.21784402145842 -18.975012459824118, 14.71188938623539 -18.862249829261074 M13.493218259676757 -19.140403561325776 C13.8542238314975 -19.058006395339206, 14.215229403318242 -18.97560922935264, 14.71188938623539 -18.862249829261074 M14.71188938623539 -18.862249829261074 C15.187063987728797 -18.721220501780213, 15.662238589222202 -18.58019117429935, 15.910235251460602 -18.50658706670804 M14.71188938623539 -18.862249829261074 C15.134746401816066 -18.736748086658498, 15.557603417396741 -18.611246344055925, 15.910235251460602 -18.50658706670804 M15.910235251460602 -18.50658706670804 C16.35379768821114 -18.343351989737624, 16.797360124961678 -18.180116912767208, 17.083331595147794 -18.074876768247425 M15.910235251460602 -18.50658706670804 C16.15312224080125 -18.417202409407963, 16.396009230141892 -18.32781775210789, 17.083331595147794 -18.074876768247425 M17.083331595147794 -18.074876768247425 C17.516181681925836 -17.8832668748724, 17.949031768703883 -17.691656981497378, 18.22635791279238 -17.568892924097174 M17.083331595147794 -18.074876768247425 C17.313845088627723 -17.97283528262369, 17.544358582107655 -17.87079379699996, 18.22635791279238 -17.568892924097174 M18.22635791279238 -17.568892924097174 C18.52509665101819 -17.413041115716066, 18.823835389243996 -17.257189307334958, 19.334617264076783 -16.990714730406097 M18.22635791279238 -17.568892924097174 C18.60577721790887 -17.370950115647567, 18.985196523025362 -17.173007307197956, 19.334617264076783 -16.990714730406097 M19.334617264076783 -16.990714730406097 C19.604412857385256 -16.827163056247606, 19.87420845069373 -16.663611382089115, 20.403555573605697 -16.342718045390892 M19.334617264076783 -16.990714730406097 C19.722591776453925 -16.755522301011762, 20.110566288831063 -16.52032987161743, 20.403555573605697 -16.342718045390892 M20.403555573605697 -16.342718045390892 C20.714766569200037 -16.12563072697115, 21.025977564794378 -15.908543408551404, 21.428780344578712 -15.627565626425154 M20.403555573605697 -16.342718045390892 C20.744869668396984 -16.10463210811352, 21.086183763188266 -15.866546170836148, 21.428780344578712 -15.627565626425154 M21.428780344578712 -15.627565626425154 C21.68800274039864 -15.42084266395642, 21.94722513621857 -15.214119701487684, 22.40607870850187 -14.848196188198123 M21.428780344578712 -15.627565626425154 C21.639173343516607 -15.45978280856502, 21.849566342454498 -15.291999990704886, 22.40607870850187 -14.848196188198123 M22.40607870850187 -14.848196188198123 C22.644143695622393 -14.631991865749656, 22.88220868274292 -14.415787543301189, 23.331434736767985 -14.007812326905688 M22.40607870850187 -14.848196188198123 C22.68210131059016 -14.59751976413939, 22.95812391267845 -14.346843340080657, 23.331434736767985 -14.007812326905688 M23.331434736767985 -14.007812326905688 C23.602378537371216 -13.728040607883123, 23.873322337974447 -13.448268888860557, 24.201045942968648 -13.10986736009568 M23.331434736767985 -14.007812326905688 C23.557525483338384 -13.774355068676245, 23.78361622990878 -13.5408978104468, 24.201045942968648 -13.10986736009568 M24.201045942968648 -13.10986736009568 C24.42741117715403 -12.843965875474815, 24.653776411339418 -12.578064390853948, 25.011338908126582 -12.158051136245305 M24.201045942968648 -13.10986736009568 C24.443058355143414 -12.825585809858836, 24.68507076731818 -12.541304259621993, 25.011338908126582 -12.158051136245305 M25.011338908126582 -12.158051136245305 C25.173801906428174 -11.940365519204795, 25.336264904729767 -11.722679902164284, 25.758983964640635 -11.156274872382312 M25.011338908126582 -12.158051136245305 C25.294851700061955 -11.778169823598594, 25.578364491997327 -11.398288510951883, 25.758983964640635 -11.156274872382312 M25.758983964640635 -11.156274872382312 C26.02874362086693 -10.741851599808385, 26.298503277093225 -10.327428327234458, 26.440908878604247 -10.108655082055241 M25.758983964640635 -11.156274872382312 C25.957054771353658 -10.85198492381228, 26.15512557806668 -10.547694975242246, 26.440908878604247 -10.108655082055241 M26.440908878604247 -10.108655082055241 C26.676097690969943 -9.69105353025024, 26.91128650333564 -9.273451978445237, 27.0543114742735 -9.019496659696287 M26.440908878604247 -10.108655082055241 C26.645953097485247 -9.744578308453404, 26.85099731636625 -9.380501534851565, 27.0543114742735 -9.019496659696287 M27.0543114742735 -9.019496659696287 C27.24843507344543 -8.616394852436137, 27.442558672617366 -8.213293045175988, 27.59667114880834 -7.893275190886684 M27.0543114742735 -9.019496659696287 C27.16682567259361 -8.785858519466398, 27.279339870913716 -8.55222037923651, 27.59667114880834 -7.893275190886684 M27.59667114880834 -7.893275190886684 C27.7261238276026 -7.573524571467582, 27.85557650639686 -7.253773952048479, 28.065759229970325 -6.734618561215508 M27.59667114880834 -7.893275190886684 C27.699562719670812 -7.63913102158319, 27.80245429053328 -7.384986852279695, 28.065759229970325 -6.734618561215508 M28.065759229970325 -6.734618561215508 C28.220296088505204 -6.269178165413115, 28.37483294704008 -5.8037377696107235, 28.45964813421488 -5.548287939305138 M28.065759229970325 -6.734618561215508 C28.146611983279072 -6.491102950386372, 28.22746473658782 -6.247587339557236, 28.45964813421488 -5.548287939305138 M28.45964813421488 -5.548287939305138 C28.585838175024556 -5.067070622588204, 28.71202821583423 -4.585853305871271, 28.77671928754556 -4.339158212148133 M28.45964813421488 -5.548287939305138 C28.571652921390914 -5.1211651426210905, 28.683657708566948 -4.694042345937043, 28.77671928754556 -4.339158212148133 M28.77671928754556 -4.339158212148133 C28.870933077906216 -3.855390310737813, 28.96514686826687 -3.3716224093274927, 29.015669776581777 -3.1121979531509023 M28.77671928754556 -4.339158212148133 C28.851505974199345 -3.955144382352768, 28.926292660853132 -3.571130552557403, 29.015669776581777 -3.1121979531509023 M29.015669776581777 -3.1121979531509023 C29.050044959888062 -2.8455908195751043, 29.084420143194343 -2.578983685999306, 29.175517702509367 -1.872449005199798 M29.015669776581777 -3.1121979531509023 C29.05749080680782 -2.7878423012142384, 29.099311837033863 -2.4634866492775744, 29.175517702509367 -1.872449005199798 M29.175517702509367 -1.872449005199798 C29.195186992699558 -1.5660839337222972, 29.21485628288975 -1.2597188622447963, 29.255606215913414 -0.6250057626472757 M29.175517702509367 -1.872449005199798 C29.200896626270577 -1.4771517821203903, 29.226275550031787 -1.0818545590409827, 29.255606215913414 -0.6250057626472757 M29.255606215913414 -0.6250057626472757 C29.255606215913414 -0.30544986893031795, 29.255606215913414 0.014106024786639804, 29.255606215913414 0.625005762647271 M29.255606215913414 -0.6250057626472757 C29.255606215913414 -0.17984013142249589, 29.255606215913414 0.2653254998022839, 29.255606215913414 0.625005762647271 M29.255606215913414 0.625005762647271 C29.235230424867282 0.9423751552332842, 29.21485463382115 1.2597445478192975, 29.175517702509367 1.8724490051997846 M29.255606215913414 0.625005762647271 C29.226866034785587 1.0726572823698393, 29.19812585365776 1.5203088020924076, 29.175517702509367 1.8724490051997846 M29.175517702509367 1.8724490051997846 C29.120447736238432 2.2995607888022778, 29.0653777699675 2.7266725724047713, 29.015669776581777 3.1121979531508885 M29.175517702509367 1.8724490051997846 C29.11853686126549 2.314381157747488, 29.061556020021612 2.756313310295191, 29.015669776581777 3.1121979531508885 M29.015669776581777 3.1121979531508885 C28.922077874255173 3.592772590942449, 28.82848597192857 4.07334722873401, 28.77671928754556 4.339158212148129 M29.015669776581777 3.1121979531508885 C28.95380200715462 3.429875873401645, 28.89193423772746 3.7475537936524015, 28.77671928754556 4.339158212148129 M28.77671928754556 4.339158212148129 C28.663812619731054 4.769720270584219, 28.550905951916544 5.20028232902031, 28.459648134214884 5.548287939305125 M28.77671928754556 4.339158212148129 C28.70705703110727 4.604810587760265, 28.637394774668973 4.8704629633724, 28.459648134214884 5.548287939305125 M28.459648134214884 5.548287939305125 C28.367726218936983 5.825142102353898, 28.275804303659083 6.101996265402671, 28.06575922997033 6.734618561215495 M28.459648134214884 5.548287939305125 C28.379311823449097 5.790248107478811, 28.29897551268331 6.032208275652496, 28.06575922997033 6.734618561215495 M28.06575922997033 6.734618561215495 C27.896536242276625 7.15260261252284, 27.72731325458292 7.570586663830186, 27.596671148808344 7.893275190886679 M28.06575922997033 6.734618561215495 C27.884453092043366 7.182448227210812, 27.7031469541164 7.630277893206129, 27.596671148808344 7.893275190886679 M27.596671148808344 7.893275190886679 C27.44063740325964 8.21728260210589, 27.284603657710935 8.5412900133251, 27.054311474273504 9.019496659696284 M27.596671148808344 7.893275190886679 C27.406261503860183 8.28866489273528, 27.215851858912018 8.684054594583882, 27.054311474273504 9.019496659696284 M27.054311474273504 9.019496659696284 C26.916835365501672 9.263599411786222, 26.77935925672984 9.50770216387616, 26.44090887860425 10.108655082055236 M27.054311474273504 9.019496659696284 C26.85016794105817 9.381974174694415, 26.646024407842837 9.744451689692548, 26.44090887860425 10.108655082055236 M26.44090887860425 10.108655082055236 C26.291355252851833 10.338409611982502, 26.141801627099415 10.568164141909767, 25.75898396464064 11.156274872382301 M26.44090887860425 10.108655082055236 C26.185391327089025 10.501198657252358, 25.929873775573803 10.893742232449478, 25.75898396464064 11.156274872382301 M25.75898396464064 11.156274872382301 C25.579281860838705 11.397059320278453, 25.39957975703677 11.637843768174607, 25.011338908126582 12.158051136245302 M25.75898396464064 11.156274872382301 C25.573467040174243 11.404850650227774, 25.38795011570784 11.653426428073244, 25.011338908126582 12.158051136245302 M25.011338908126582 12.158051136245302 C24.845658761449112 12.352668464000073, 24.67997861477164 12.547285791754845, 24.20104594296866 13.10986736009567 M25.011338908126582 12.158051136245302 C24.82747926744273 12.374023132102483, 24.643619626758877 12.589995127959664, 24.20104594296866 13.10986736009567 M24.20104594296866 13.10986736009567 C23.86448528124863 13.457393875465815, 23.5279246195286 13.80492039083596, 23.33143473676799 14.007812326905684 M24.20104594296866 13.10986736009567 C23.909772629761516 13.4106309699658, 23.618499316554374 13.711394579835929, 23.33143473676799 14.007812326905684 M23.33143473676799 14.007812326905684 C22.99577406908393 14.312650464201752, 22.660113401399865 14.617488601497818, 22.406078708501887 14.848196188198111 M23.33143473676799 14.007812326905684 C22.999769686424866 14.309021750250952, 22.668104636081747 14.610231173596219, 22.406078708501887 14.848196188198111 M22.406078708501887 14.848196188198111 C22.03414049136477 15.144807018673328, 21.66220227422765 15.441417849148547, 21.428780344578715 15.627565626425152 M22.406078708501887 14.848196188198111 C22.03154588980086 15.146876144375298, 21.657013071099836 15.445556100552484, 21.428780344578715 15.627565626425152 M21.428780344578715 15.627565626425152 C21.088540335033223 15.86490232833146, 20.74830032548773 16.10223903023777, 20.403555573605708 16.34271804539089 M21.428780344578715 15.627565626425152 C21.19501200974014 15.790632297140428, 20.961243674901567 15.953698967855702, 20.403555573605708 16.34271804539089 M20.403555573605708 16.34271804539089 C20.02820303658852 16.570258959147058, 19.652850499571333 16.797799872903227, 19.334617264076787 16.990714730406093 M20.403555573605708 16.34271804539089 C20.031446275377714 16.56829288873366, 19.659336977149724 16.793867732076432, 19.334617264076787 16.990714730406093 M19.334617264076787 16.990714730406093 C19.0781834362782 17.12449609411491, 18.82174960847961 17.258277457823727, 18.226357912792388 17.56889292409717 M19.334617264076787 16.990714730406093 C18.923299354158374 17.205299020548836, 18.511981444239957 17.419883310691578, 18.226357912792388 17.56889292409717 M18.226357912792388 17.56889292409717 C17.92803132635734 17.700953254368205, 17.629704739922285 17.83301358463924, 17.083331595147804 18.07487676824742 M18.226357912792388 17.56889292409717 C17.95395009363475 17.68947978494741, 17.681542274477113 17.810066645797647, 17.083331595147804 18.07487676824742 M17.083331595147804 18.07487676824742 C16.755713260554078 18.1954433438486, 16.428094925960355 18.316009919449776, 15.910235251460616 18.506587066708033 M17.083331595147804 18.07487676824742 C16.713730439328554 18.210893410144536, 16.3441292835093 18.346910052041654, 15.910235251460616 18.506587066708033 M15.910235251460616 18.506587066708033 C15.591602747646261 18.60115552130399, 15.272970243831907 18.695723975899952, 14.711889386235413 18.86224982926107 M15.910235251460616 18.506587066708033 C15.641982497456533 18.586203076009006, 15.373729743452449 18.66581908530998, 14.711889386235413 18.86224982926107 M14.711889386235413 18.86224982926107 C14.380457558920718 18.93789698105085, 14.049025731606022 19.013544132840636, 13.493218259676766 19.140403561325773 M14.711889386235413 18.86224982926107 C14.412113322428262 18.930671759603417, 14.11233725862111 18.999093689945767, 13.493218259676766 19.140403561325773 M13.493218259676766 19.140403561325773 C13.10728983587166 19.202797475966957, 12.721361412066553 19.26519139060814, 12.259229652847878 19.3399052695533 M13.493218259676766 19.140403561325773 C13.0154136582923 19.21765130384759, 12.537609056907833 19.294899046369405, 12.259229652847878 19.3399052695533 M12.259229652847878 19.3399052695533 C11.922513912578694 19.372387832057143, 11.58579817230951 19.404870394560984, 11.0149942896239 19.45993515863156 M12.259229652847878 19.3399052695533 C11.768886886259079 19.387208046522662, 11.278544119670281 19.43451082349203, 11.0149942896239 19.45993515863156 M11.0149942896239 19.45993515863156 C10.650669747995346 19.471618337566884, 10.286345206366793 19.483301516502213, 9.765625000000004 19.5 M11.0149942896239 19.45993515863156 C10.748396948611674 19.468484416457578, 10.481799607599449 19.477033674283593, 9.765625000000004 19.5 M9.765625000000004 19.5 C9.765625000000002 19.5, 9.765625000000002 19.5, 9.765625 19.5 M9.765625000000004 19.5 C9.765625000000002 19.5, 9.765625 19.5, 9.765625 19.5 M9.765625 19.5 C3.3665963301568373 19.5, -3.0324323396863253 19.5, -9.765624999999996 19.5 M9.765625 19.5 C5.489454698140745 19.5, 1.2132843962814892 19.5, -9.765624999999996 19.5 M-9.765624999999996 19.5 C-10.169343582418671 19.487053530852382, -10.573062164837348 19.474107061704768, -11.014994289623893 19.45993515863156 M-9.765624999999996 19.5 C-10.11446609359382 19.488813345106443, -10.463307187187645 19.477626690212887, -11.014994289623893 19.45993515863156 M-11.014994289623893 19.45993515863156 C-11.308345641463434 19.431635906526218, -11.601696993302975 19.403336654420873, -12.259229652847871 19.3399052695533 M-11.014994289623893 19.45993515863156 C-11.280463594791447 19.434325654035597, -11.545932899959002 19.408716149439634, -12.259229652847871 19.3399052695533 M-12.259229652847871 19.3399052695533 C-12.745372297432684 19.26130949686934, -13.231514942017498 19.182713724185383, -13.493218259676759 19.140403561325773 M-12.259229652847871 19.3399052695533 C-12.722075512195204 19.265075940437267, -13.184921371542535 19.19024661132124, -13.493218259676759 19.140403561325773 M-13.493218259676759 19.140403561325773 C-13.970487206235454 19.03147003874469, -14.447756152794149 18.922536516163607, -14.711889386235388 18.862249829261074 M-13.493218259676759 19.140403561325773 C-13.871507515010826 19.054061507363862, -14.249796770344894 18.967719453401955, -14.711889386235388 18.862249829261074 M-14.711889386235388 18.862249829261074 C-14.96867764044158 18.78603642332173, -15.225465894647773 18.709823017382384, -15.910235251460593 18.506587066708043 M-14.711889386235388 18.862249829261074 C-15.090523231125426 18.74987329158732, -15.469157076015463 18.637496753913567, -15.910235251460593 18.506587066708043 M-15.910235251460593 18.506587066708043 C-16.27959983961993 18.370657483896583, -16.64896442777927 18.234727901085122, -17.083331595147797 18.074876768247425 M-15.910235251460593 18.506587066708043 C-16.17903497477934 18.407666283769338, -16.44783469809809 18.308745500830636, -17.083331595147797 18.074876768247425 M-17.083331595147797 18.074876768247425 C-17.454803506858347 17.910437172255907, -17.826275418568898 17.74599757626439, -18.22635791279238 17.568892924097174 M-17.083331595147797 18.074876768247425 C-17.481801407339876 17.898486002577, -17.880271219531956 17.722095236906572, -18.22635791279238 17.568892924097174 M-18.22635791279238 17.568892924097174 C-18.615233951678547 17.366016543697253, -19.004109990564714 17.163140163297328, -19.33461726407678 16.990714730406097 M-18.22635791279238 17.568892924097174 C-18.58608446933658 17.38122380996392, -18.94581102588078 17.19355469583067, -19.33461726407678 16.990714730406097 M-19.33461726407678 16.990714730406097 C-19.606110440083583 16.826133971639774, -19.87760361609039 16.661553212873454, -20.403555573605686 16.3427180453909 M-19.33461726407678 16.990714730406097 C-19.742764486310016 16.743293485748996, -20.150911708543255 16.495872241091895, -20.403555573605686 16.3427180453909 M-20.403555573605686 16.3427180453909 C-20.72026674681899 16.12179404116302, -21.03697792003229 15.90087003693514, -21.428780344578712 15.627565626425156 M-20.403555573605686 16.3427180453909 C-20.672370568142057 16.15520434201589, -20.941185562678427 15.96769063864088, -21.428780344578712 15.627565626425156 M-21.428780344578712 15.627565626425156 C-21.69844894136736 15.412512096668952, -21.968117538156005 15.197458566912745, -22.40607870850187 14.848196188198125 M-21.428780344578712 15.627565626425156 C-21.760945413936643 15.362672822895927, -22.093110483294573 15.097780019366699, -22.40607870850187 14.848196188198125 M-22.40607870850187 14.848196188198125 C-22.729108152403633 14.554829394137274, -23.052137596305396 14.261462600076422, -23.331434736767974 14.007812326905697 M-22.40607870850187 14.848196188198125 C-22.64353888386352 14.632541139786623, -22.880999059225175 14.416886091375119, -23.331434736767974 14.007812326905697 M-23.331434736767974 14.007812326905697 C-23.516365521387538 13.816856108686213, -23.7012963060071 13.625899890466732, -24.201045942968655 13.109867360095677 M-23.331434736767974 14.007812326905697 C-23.641636360347686 13.68750368253271, -23.951837983927394 13.367195038159725, -24.201045942968655 13.109867360095677 M-24.201045942968655 13.109867360095677 C-24.391218434943713 12.886479929900432, -24.58139092691877 12.663092499705186, -25.01133890812658 12.158051136245307 M-24.201045942968655 13.109867360095677 C-24.438348097365463 12.831118746666082, -24.67565025176227 12.552370133236487, -25.01133890812658 12.158051136245307 M-25.01133890812658 12.158051136245307 C-25.283159916232645 11.793835748786451, -25.554980924338707 11.429620361327594, -25.758983964640635 11.156274872382316 M-25.01133890812658 12.158051136245307 C-25.1789831462511 11.93342312986273, -25.346627384375623 11.708795123480154, -25.758983964640635 11.156274872382316 M-25.758983964640635 11.156274872382316 C-25.975130094987627 10.824216372806502, -26.19127622533462 10.492157873230688, -26.440908878604244 10.108655082055249 M-25.758983964640635 11.156274872382316 C-25.96223684444233 10.844023867966616, -26.16548972424403 10.531772863550918, -26.440908878604244 10.108655082055249 M-26.440908878604244 10.108655082055249 C-26.592544998201124 9.839409796888857, -26.744181117798007 9.570164511722465, -27.0543114742735 9.019496659696289 M-26.440908878604244 10.108655082055249 C-26.674198674924337 9.694425425535437, -26.907488471244434 9.280195769015625, -27.0543114742735 9.019496659696289 M-27.0543114742735 9.019496659696289 C-27.189936060680107 8.737869304121697, -27.325560647086714 8.456241948547106, -27.59667114880834 7.893275190886686 M-27.0543114742735 9.019496659696289 C-27.17613793135715 8.766521414893488, -27.297964388440803 8.513546170090684, -27.59667114880834 7.893275190886686 M-27.59667114880834 7.893275190886686 C-27.77701078428496 7.447832804629776, -27.957350419761582 7.002390418372865, -28.065759229970325 6.73461856121551 M-27.59667114880834 7.893275190886686 C-27.781524111429956 7.436684799322394, -27.96637707405157 6.980094407758101, -28.065759229970325 6.73461856121551 M-28.065759229970325 6.73461856121551 C-28.16015763612779 6.450305602212731, -28.25455604228525 6.165992643209953, -28.45964813421488 5.5482879393051325 M-28.065759229970325 6.73461856121551 C-28.211294901943113 6.29628830519381, -28.356830573915904 5.85795804917211, -28.45964813421488 5.5482879393051325 M-28.45964813421488 5.5482879393051325 C-28.562156788243612 5.157378013961888, -28.664665442272344 4.766468088618644, -28.776719287545557 4.339158212148136 M-28.45964813421488 5.5482879393051325 C-28.55801322013563 5.173179234991392, -28.656378306056386 4.798070530677651, -28.776719287545557 4.339158212148136 M-28.776719287545557 4.339158212148136 C-28.855410910158202 3.9350933615125383, -28.934102532770847 3.531028510876941, -29.015669776581777 3.112197953150904 M-28.776719287545557 4.339158212148136 C-28.861120312461104 3.905776787369739, -28.94552133737665 3.4723953625913424, -29.015669776581777 3.112197953150904 M-29.015669776581777 3.112197953150904 C-29.05227215725566 2.828317116601853, -29.088874537929545 2.5444362800528015, -29.175517702509364 1.872449005199809 M-29.015669776581777 3.112197953150904 C-29.061166609681152 2.759333499998045, -29.106663442780526 2.406469046845186, -29.175517702509364 1.872449005199809 M-29.175517702509364 1.872449005199809 C-29.197835081087508 1.5248378195814833, -29.22015245966565 1.1772266339631579, -29.255606215913414 0.6250057626472781 M-29.175517702509364 1.872449005199809 C-29.19969370164608 1.4958883041301698, -29.2238697007828 1.1193276030605306, -29.255606215913414 0.6250057626472781 M-29.255606215913414 0.6250057626472781 C-29.255606215913414 0.3051766736281328, -29.255606215913414 -0.014652415391012585, -29.255606215913414 -0.6250057626472687 M-29.255606215913414 0.6250057626472781 C-29.255606215913414 0.30229802699704655, -29.255606215913414 -0.020409708653185032, -29.255606215913414 -0.6250057626472687 M-29.255606215913414 -0.6250057626472687 C-29.22611971938824 -1.0842817470984398, -29.19663322286307 -1.543557731549611, -29.175517702509367 -1.8724490051997822 M-29.255606215913414 -0.6250057626472687 C-29.23228088712567 -0.9883165863829109, -29.208955558337927 -1.351627410118553, -29.175517702509367 -1.8724490051997822 M-29.175517702509367 -1.8724490051997822 C-29.11284456280248 -2.358529500555125, -29.05017142309559 -2.8446099959104676, -29.015669776581777 -3.112197953150895 M-29.175517702509367 -1.8724490051997822 C-29.124108072348697 -2.2711719447461913, -29.072698442188027 -2.6698948842926002, -29.015669776581777 -3.112197953150895 M-29.015669776581777 -3.112197953150895 C-28.956358784600994 -3.416747361589625, -28.89704779262021 -3.7212967700283546, -28.77671928754556 -4.339158212148126 M-29.015669776581777 -3.112197953150895 C-28.952415408158945 -3.43699576618664, -28.889161039736113 -3.7617935792223847, -28.77671928754556 -4.339158212148126 M-28.77671928754556 -4.339158212148126 C-28.661276372528807 -4.779392080382872, -28.545833457512053 -5.219625948617619, -28.459648134214884 -5.548287939305123 M-28.77671928754556 -4.339158212148126 C-28.672448625070864 -4.736787439355132, -28.568177962596163 -5.13441666656214, -28.459648134214884 -5.548287939305123 M-28.459648134214884 -5.548287939305123 C-28.339863116198284 -5.909061328420321, -28.22007809818168 -6.269834717535519, -28.065759229970332 -6.734618561215485 M-28.459648134214884 -5.548287939305123 C-28.327859994190526 -5.9452128194699085, -28.196071854166167 -6.342137699634695, -28.065759229970332 -6.734618561215485 M-28.065759229970332 -6.734618561215485 C-27.935329321028163 -7.056782957993381, -27.804899412085998 -7.378947354771276, -27.596671148808344 -7.893275190886676 M-28.065759229970332 -6.734618561215485 C-27.926880399736675 -7.077651956932143, -27.788001569503017 -7.420685352648801, -27.596671148808344 -7.893275190886676 M-27.596671148808344 -7.893275190886676 C-27.38496711753844 -8.332883141559252, -27.173263086268538 -8.772491092231828, -27.054311474273504 -9.019496659696282 M-27.596671148808344 -7.893275190886676 C-27.462814394311227 -8.17123160567567, -27.32895763981411 -8.449188020464664, -27.054311474273504 -9.019496659696282 M-27.054311474273504 -9.019496659696282 C-26.82816922852117 -9.42103511641506, -26.602026982768834 -9.822573573133837, -26.440908878604247 -10.108655082055243 M-27.054311474273504 -9.019496659696282 C-26.874894985598775 -9.338068803227799, -26.695478496924046 -9.656640946759314, -26.440908878604247 -10.108655082055243 M-26.440908878604247 -10.108655082055243 C-26.25975258243181 -10.386959800252892, -26.07859628625937 -10.665264518450542, -25.75898396464064 -11.156274872382308 M-26.440908878604247 -10.108655082055243 C-26.297409964230162 -10.329107949387733, -26.15391104985608 -10.549560816720223, -25.75898396464064 -11.156274872382308 M-25.75898396464064 -11.156274872382308 C-25.591717508098736 -11.380396685860788, -25.424451051556833 -11.60451849933927, -25.011338908126586 -12.158051136245302 M-25.75898396464064 -11.156274872382308 C-25.543526089213838 -11.444968796837975, -25.328068213787038 -11.733662721293639, -25.011338908126586 -12.158051136245302 M-25.011338908126586 -12.158051136245302 C-24.800825530892062 -12.405332127695475, -24.59031215365754 -12.652613119145649, -24.201045942968662 -13.10986736009567 M-25.011338908126586 -12.158051136245302 C-24.776787138836 -12.433568990827782, -24.542235369545416 -12.709086845410264, -24.201045942968662 -13.10986736009567 M-24.201045942968662 -13.10986736009567 C-23.89989832879181 -13.420826996412211, -23.598750714614955 -13.73178663272875, -23.331434736767996 -14.007812326905677 M-24.201045942968662 -13.10986736009567 C-23.912483225499233 -13.407832057322558, -23.623920508029805 -13.705796754549448, -23.331434736767996 -14.007812326905677 M-23.331434736767996 -14.007812326905677 C-23.038607319476547 -14.273750439500875, -22.7457799021851 -14.53968855209607, -22.406078708501887 -14.848196188198107 M-23.331434736767996 -14.007812326905677 C-23.07877274126611 -14.237273266150419, -22.826110745764225 -14.466734205395161, -22.406078708501887 -14.848196188198107 M-22.406078708501887 -14.848196188198107 C-22.1404228244088 -15.06004968636237, -21.87476694031572 -15.271903184526636, -21.42878034457872 -15.627565626425149 M-22.406078708501887 -14.848196188198107 C-22.028712346337727 -15.149135819883387, -21.651345984173567 -15.450075451568667, -21.42878034457872 -15.627565626425149 M-21.42878034457872 -15.627565626425149 C-21.112765769912166 -15.848003713662084, -20.79675119524561 -16.06844180089902, -20.40355557360571 -16.342718045390885 M-21.42878034457872 -15.627565626425149 C-21.040836230056478 -15.898178646885816, -20.652892115534236 -16.168791667346483, -20.40355557360571 -16.342718045390885 M-20.40355557360571 -16.342718045390885 C-20.15771395002963 -16.49174868232845, -19.91187232645355 -16.64077931926601, -19.33461726407679 -16.99071473040609 M-20.40355557360571 -16.342718045390885 C-20.022122173588556 -16.57394521403275, -19.640688773571405 -16.805172382674616, -19.33461726407679 -16.99071473040609 M-19.33461726407679 -16.99071473040609 C-18.984909423723426 -17.17315708671988, -18.635201583370062 -17.355599443033665, -18.226357912792388 -17.56889292409717 M-19.33461726407679 -16.99071473040609 C-19.008435416963408 -17.1608835911157, -18.682253569850026 -17.331052451825304, -18.226357912792388 -17.56889292409717 M-18.226357912792388 -17.56889292409717 C-17.826809142903677 -17.74576131233375, -17.427260373014963 -17.922629700570337, -17.083331595147804 -18.07487676824742 M-18.226357912792388 -17.56889292409717 C-17.77167018029424 -17.770169695441737, -17.316982447796097 -17.971446466786308, -17.083331595147804 -18.07487676824742 M-17.083331595147804 -18.07487676824742 C-16.788925010708354 -18.18322111278577, -16.494518426268908 -18.291565457324122, -15.910235251460618 -18.506587066708033 M-17.083331595147804 -18.07487676824742 C-16.765420351023447 -18.19187104482451, -16.447509106899094 -18.308865321401598, -15.910235251460618 -18.506587066708033 M-15.910235251460618 -18.506587066708033 C-15.62693399776554 -18.590669391726106, -15.343632744070465 -18.67475171674418, -14.711889386235413 -18.862249829261067 M-15.910235251460618 -18.506587066708033 C-15.496590554765108 -18.62935464142194, -15.082945858069596 -18.75212221613585, -14.711889386235413 -18.862249829261067 M-14.711889386235413 -18.862249829261067 C-14.357249859843318 -18.94319398692088, -14.002610333451223 -19.024138144580686, -13.493218259676768 -19.140403561325773 M-14.711889386235413 -18.862249829261067 C-14.273866572990727 -18.962225678018182, -13.83584375974604 -19.062201526775297, -13.493218259676768 -19.140403561325773 M-13.493218259676768 -19.140403561325773 C-13.002681062953338 -19.21970981111924, -12.512143866229907 -19.29901606091271, -12.25922965284788 -19.3399052695533 M-13.493218259676768 -19.140403561325773 C-13.13135932516396 -19.198906107599857, -12.76950039065115 -19.257408653873938, -12.25922965284788 -19.3399052695533 M-12.25922965284788 -19.3399052695533 C-11.825906789475585 -19.381707405035833, -11.392583926103292 -19.42350954051837, -11.014994289623903 -19.45993515863156 M-12.25922965284788 -19.3399052695533 C-11.801619974513585 -19.38405032486605, -11.344010296179288 -19.428195380178803, -11.014994289623903 -19.45993515863156 M-11.014994289623903 -19.45993515863156 C-10.687330543271885 -19.470442697218278, -10.359666796919868 -19.480950235804993, -9.765625000000005 -19.5 M-11.014994289623903 -19.45993515863156 C-10.723144310597792 -19.469294219407402, -10.431294331571682 -19.47865328018325, -9.765625000000005 -19.5 M-9.765625000000005 -19.5 C-9.765625000000004 -19.5, -9.765625000000002 -19.5, -9.765625 -19.5 M-9.765625000000005 -19.5 C-9.765625000000004 -19.5, -9.765625000000002 -19.5, -9.765625 -19.5" stroke="#9370DB" stroke-width="1.3" fill="none" stroke-dasharray="0 0" style=""></path></g><g class="label" style="" transform="translate(-16.890625, -12)"><rect></rect><foreignObject width="33.78125" height="24"><div xmlns="http://www.w3.org/1999/xhtml" style="display: table-cell; white-space: nowrap; line-height: 1.5; max-width: 200px; text-align: center;"><span class="nodeLabel"><p>User</p></span></div></foreignObject></g></g><g class="node default" id="g381939446-flowchart-LLM-21" data-look="classic" transform="translate(1564.125, 717)"><path d="M0,15.808823529411764 a107.5,15.808823529411764 0,0,0 215,0 a107.5,15.808823529411764 0,0,0 -215,0 l0,78.80882352941177 a107.5,15.808823529411764 0,0,0 215,0 l0,-78.80882352941177" class="basic label-container outer-path" style="" transform="translate(-107.5, -55.21323529411765)"></path><g class="label" style="" transform="translate(-100, -14)"><rect></rect><foreignObject width="200" height="48"><div xmlns="http://www.w3.org/1999/xhtml" style="display: table; white-space: break-spaces; line-height: 1.5; max-width: 200px; text-align: center; width: 200px;"><span class="nodeLabel"><p>4b. OpenAI chat model via LangChain  WORDS</p></span></div></foreignObject></g></g></g></g></g><defs><filter id="g381939446-drop-shadow" height="130%" width="130%"><feDropShadow dx="4" dy="4" stdDeviation="0" flood-opacity="0.06" flood-color="#000000"></feDropShadow></filter></defs><defs><filter id="g381939446-drop-shadow-small" height="150%" width="150%"><feDropShadow dx="2" dy="2" stdDeviation="0" flood-opacity="0.06" flood-color="#000000"></feDropShadow></filter></defs></svg>